<svg width="143" height="169" viewBox="0 0 143 169" fill="none" xmlns="http://www.w3.org/2000/svg">
<circle cx="71.5" cy="84.5" r="71.5" fill="#464646"/>
<path d="M76.4297 92.5859H52.3828V134H38.8125V31.625H72.7031C84.2344 31.625 93.0938 34.25 99.2812 39.5C105.516 44.75 108.633 52.3906 108.633 62.4219C108.633 68.7969 106.898 74.3516 103.43 79.0859C100.008 83.8203 95.2266 87.3594 89.0859 89.7031L113.133 133.156V134H98.6484L76.4297 92.5859ZM52.3828 81.5469H73.125C79.8281 81.5469 85.1484 79.8125 89.0859 76.3438C93.0703 72.875 95.0625 68.2344 95.0625 62.4219C95.0625 56.0938 93.1641 51.2422 89.3672 47.8672C85.6172 44.4922 80.1797 42.7813 73.0547 42.7344H52.3828V81.5469Z" fill="white"/>
</svg>
